HIERARCHY
ROOT Hips
{
	OFFSET 2.433734 86.173073 3.643662
	CHANNELS 6 Xposition Yposition Zposition Zrotation Yrotation Xrotation 
	JOINT Spine
	{
		OFFSET -0.000000 8.814246 -2.080107
		CHANNELS 3 Zrotation Yrotation Xrotation
		JOINT Spine1
		{
			OFFSET 0.000000 8.844141 0.000000
			CHANNELS 3 Zrotation Yrotation Xrotation
			JOINT Spine2
			{
				OFFSET 0.000000 11.682268 -0.000000
				CHANNELS 3 Zrotation Yrotation Xrotation
				JOINT Spine3
				{
					OFFSET -0.000000 11.746700 -0.000000
					CHANNELS 3 Zrotation Yrotation Xrotation
					JOINT Neck
					{
						OFFSET -0.000000 17.658264 0.000000
						CHANNELS 3 Zrotation Yrotation Xrotation
						JOINT Neck1
						{
							OFFSET -0.000000 5.101515 -0.000000
							CHANNELS 3 Zrotation Yrotation Xrotation
							JOINT Head
							{
								OFFSET 0.000000 5.101515 -0.000000
								CHANNELS 3 Zrotation Yrotation Xrotation
								JOINT HeadEnd
								{
									OFFSET -0.000000 11.655085 -0.000000
									CHANNELS 3 Zrotation Yrotation Xrotation
									End Site
									{
										OFFSET 0.000000 0.000000 0.000000
									}
								}
							}
						}
					}
					JOINT RightShoulder
					{
						OFFSET -2.625389 11.175210 -0.000000
						CHANNELS 3 Zrotation Yrotation Xrotation
						JOINT RightArm
						{
							OFFSET -0.000000 10.434715 0.000000
							CHANNELS 3 Zrotation Yrotation Xrotation
							JOINT RightForeArm
							{
								OFFSET 0.000000 29.628420 -0.000000
								CHANNELS 3 Zrotation Yrotation Xrotation
								JOINT RightHand
								{
									OFFSET 0.000000 22.857611 0.000000
									CHANNELS 3 Zrotation Yrotation Xrotation
									JOINT RightHandThumb1
									{
										OFFSET -2.867323 3.959563 2.944291
										CHANNELS 3 Zrotation Yrotation Xrotation
										JOINT RightHandThumb2
										{
											OFFSET 0.000000 3.350399 0.000000
											CHANNELS 3 Zrotation Yrotation Xrotation
											JOINT RightHandThumb3
											{
												OFFSET -0.000000 3.756509 -0.000000
												CHANNELS 3 Zrotation Yrotation Xrotation
												JOINT RightHandThumb4
												{
													OFFSET -0.000000 3.147345 -0.000000
													CHANNELS 3 Zrotation Yrotation Xrotation
													End Site
													{
														OFFSET 0.000000 0.000000 0.000000
													}
												}
											}
										}
									}
									JOINT RightHandIndex1
									{
										OFFSET -0.086752 10.030893 2.345280
										CHANNELS 3 Zrotation Yrotation Xrotation
										JOINT RightHandIndex2
										{
											OFFSET -0.000000 4.061090 0.000000
											CHANNELS 3 Zrotation Yrotation Xrotation
											JOINT RightHandIndex3
											{
												OFFSET 0.000000 3.248873 0.000000
												CHANNELS 3 Zrotation Yrotation Xrotation
												JOINT RightHandIndex4
												{
													OFFSET 0.000000 2.639709 0.000000
													CHANNELS 3 Zrotation Yrotation Xrotation
													End Site
													{
														OFFSET 0.000000 0.000000 0.000000
													}
												}
											}
										}
									}
									JOINT RightHandMiddle1
									{
										OFFSET 0.104102 9.502952 0.006768
										CHANNELS 3 Zrotation Yrotation Xrotation
										JOINT RightHandMiddle2
										{
											OFFSET -0.000000 4.568727 -0.000000
											CHANNELS 3 Zrotation Yrotation Xrotation
											JOINT RightHandMiddle3
											{
												OFFSET -0.000000 3.654981 0.000000
												CHANNELS 3 Zrotation Yrotation Xrotation
												JOINT RightHandMiddle4
												{
													OFFSET 0.000000 2.741236 0.000000
													CHANNELS 3 Zrotation Yrotation Xrotation
													End Site
													{
														OFFSET 0.000000 0.000000 0.000000
													}
												}
											}
										}
									}
									JOINT RightHandRing1
									{
										OFFSET 0.086752 8.921708 -2.267442
										CHANNELS 3 Zrotation Yrotation Xrotation
										JOINT RightHandRing2
										{
											OFFSET -0.000000 4.061090 -0.000000
											CHANNELS 3 Zrotation Yrotation Xrotation
											JOINT RightHandRing3
											{
												OFFSET 0.000000 3.654981 0.000000
												CHANNELS 3 Zrotation Yrotation Xrotation
												JOINT RightHandRing4
												{
													OFFSET -0.000000 2.741236 -0.000000
													CHANNELS 3 Zrotation Yrotation Xrotation
													End Site
													{
														OFFSET 0.000000 0.000000 0.000000
													}
												}
											}
										}
									}
									JOINT RightHandPinky1
									{
										OFFSET -0.173504 7.976997 -4.467199
										CHANNELS 3 Zrotation Yrotation Xrotation
										JOINT RightHandPinky2
										{
											OFFSET 0.000000 3.350399 0.000000
											CHANNELS 3 Zrotation Yrotation Xrotation
											JOINT RightHandPinky3
											{
												OFFSET 0.000000 2.842763 0.000000
												CHANNELS 3 Zrotation Yrotation Xrotation
												JOINT RightHandPinky4
												{
													OFFSET 0.000000 2.639709 0.000000
													CHANNELS 3 Zrotation Yrotation Xrotation
													End Site
													{
														OFFSET 0.000000 0.000000 0.000000
													}
												}
											}
										}
									}
									JOINT RightForeArmEnd
									{
										OFFSET 0.000000 0.000000 0.000000
										CHANNELS 3 Zrotation Yrotation Xrotation
										End Site
										{
											OFFSET 0.000000 0.000000 0.000000
										}
									}
								}
								JOINT RightArmEnd
								{
									OFFSET 0.000000 0.000000 0.000000
									CHANNELS 3 Zrotation Yrotation Xrotation
									End Site
									{
										OFFSET 0.000000 0.000000 0.000000
									}
								}
							}
						}
					}
					JOINT LeftShoulder
					{
						OFFSET 2.625389 11.175210 -0.000000
						CHANNELS 3 Zrotation Yrotation Xrotation
						JOINT LeftArm
						{
							OFFSET 0.000000 10.813635 0.000000
							CHANNELS 3 Zrotation Yrotation Xrotation
							JOINT LeftForeArm
							{
								OFFSET 0.000000 28.724781 0.000000
								CHANNELS 3 Zrotation Yrotation Xrotation
								JOINT LeftHand
								{
									OFFSET 0.644384 25.716167 -0.328871
									CHANNELS 3 Zrotation Yrotation Xrotation
									JOINT LeftHandThumb1
									{
										OFFSET 2.867323 3.959563 2.944291
										CHANNELS 3 Zrotation Yrotation Xrotation
										JOINT LeftHandThumb2
										{
											OFFSET 0.000000 3.350399 0.000000
											CHANNELS 3 Zrotation Yrotation Xrotation
											JOINT LeftHandThumb3
											{
												OFFSET -0.000000 3.756509 -0.000000
												CHANNELS 3 Zrotation Yrotation Xrotation
												JOINT LeftHandThumb4
												{
													OFFSET -0.000000 3.100000 0.000000
													CHANNELS 3 Zrotation Yrotation Xrotation
													End Site
													{
														OFFSET 0.000000 0.000000 0.000000
													}
												}
											}
										}
									}
									JOINT LeftHandIndex1
									{
										OFFSET 0.086752 10.030893 2.345280
										CHANNELS 3 Zrotation Yrotation Xrotation
										JOINT LeftHandIndex2
										{
											OFFSET -0.000000 4.061090 0.000000
											CHANNELS 3 Zrotation Yrotation Xrotation
											JOINT LeftHandIndex3
											{
												OFFSET 0.000000 3.248873 0.000000
												CHANNELS 3 Zrotation Yrotation Xrotation
												JOINT LeftHandIndex4
												{
													OFFSET -0.000000 2.639709 0.000000
													CHANNELS 3 Zrotation Yrotation Xrotation
													End Site
													{
														OFFSET 0.000000 0.000000 0.000000
													}
												}
											}
										}
									}
									JOINT LeftHandMiddle1
									{
										OFFSET -0.104102 9.502952 0.006768
										CHANNELS 3 Zrotation Yrotation Xrotation
										JOINT LeftHandMiddle2
										{
											OFFSET -0.000000 4.568727 0.000000
											CHANNELS 3 Zrotation Yrotation Xrotation
											JOINT LeftHandMiddle3
											{
												OFFSET 0.000000 3.654981 -0.000000
												CHANNELS 3 Zrotation Yrotation Xrotation
												JOINT LeftHandMiddle4
												{
													OFFSET -0.000000 2.741236 0.000000
													CHANNELS 3 Zrotation Yrotation Xrotation
													End Site
													{
														OFFSET 0.000000 0.000000 0.000000
													}
												}
											}
										}
									}
									JOINT LeftHandRing1
									{
										OFFSET -0.086752 8.921708 -2.267442
										CHANNELS 3 Zrotation Yrotation Xrotation
										JOINT LeftHandRing2
										{
											OFFSET -0.000000 4.061090 0.000000
											CHANNELS 3 Zrotation Yrotation Xrotation
											JOINT LeftHandRing3
											{
												OFFSET 0.000000 3.654981 0.000000
												CHANNELS 3 Zrotation Yrotation Xrotation
												JOINT LeftHandRing4
												{
													OFFSET 0.000000 2.741236 -0.000000
													CHANNELS 3 Zrotation Yrotation Xrotation
													End Site
													{
														OFFSET 0.000000 0.000000 0.000000
													}
												}
											}
										}
									}
									JOINT LeftHandPinky1
									{
										OFFSET 0.173504 7.976997 -4.467199
										CHANNELS 3 Zrotation Yrotation Xrotation
										JOINT LeftHandPinky2
										{
											OFFSET 0.000000 3.350399 -0.000000
											CHANNELS 3 Zrotation Yrotation Xrotation
											JOINT LeftHandPinky3
											{
												OFFSET -0.000000 2.842763 0.000000
												CHANNELS 3 Zrotation Yrotation Xrotation
												JOINT LeftHandPinky4
												{
													OFFSET -0.000000 2.639709 0.000000
													CHANNELS 3 Zrotation Yrotation Xrotation
													End Site
													{
														OFFSET 0.000000 0.000000 0.000000
													}
												}
											}
										}
									}
									JOINT LeftForeArmEnd
									{
										OFFSET 0.000000 0.000000 0.000000
										CHANNELS 3 Zrotation Yrotation Xrotation
										End Site
										{
											OFFSET 0.000000 0.000000 0.000000
										}
									}
								}
								JOINT LeftArmEnd
								{
									OFFSET 0.000000 0.000000 0.000000
									CHANNELS 3 Zrotation Yrotation Xrotation
									End Site
									{
										OFFSET 0.000000 0.000000 0.000000
									}
								}
							}
						}
					}
				}
			}
		}
	}
	JOINT RightUpLeg
	{
		OFFSET -11.289943 0.000000 0.000000
		CHANNELS 3 Zrotation Yrotation Xrotation
		JOINT RightLeg
		{
			OFFSET -0.000000 -38.200325 0.000000
			CHANNELS 3 Zrotation Yrotation Xrotation
			JOINT RightFoot
			{
				OFFSET -0.000000 -39.900856 -0.000000
				CHANNELS 3 Zrotation Yrotation Xrotation
				JOINT RightToeBase
				{
					OFFSET -0.000000 -0.000000 15.261641
					CHANNELS 3 Zrotation Yrotation Xrotation
					JOINT RightToeBaseEnd
					{
						OFFSET -0.000000 0.000000 7.370709
						CHANNELS 3 Zrotation Yrotation Xrotation
						End Site
						{
							OFFSET 0.000000 0.000000 0.000000
						}
					}
				}
				JOINT RightLegEnd
				{
					OFFSET 0.000000 0.000000 0.000000
					CHANNELS 3 Zrotation Yrotation Xrotation
					End Site
					{
						OFFSET 0.000000 0.000000 0.000000
					}
				}
			}
			JOINT RightUpLegEnd
			{
				OFFSET 0.000000 0.000000 0.000000
				CHANNELS 3 Zrotation Yrotation Xrotation
				End Site
				{
					OFFSET 0.000000 0.000000 0.000000
				}
			}
		}
	}
	JOINT LeftUpLeg
	{
		OFFSET 11.315661 0.000000 -0.000000
		CHANNELS 3 Zrotation Yrotation Xrotation
		JOINT LeftLeg
		{
			OFFSET -0.000000 -38.200325 -0.000000
			CHANNELS 3 Zrotation Yrotation Xrotation
			JOINT LeftFoot
			{
				OFFSET 0.000000 -39.900856 -0.000000
				CHANNELS 3 Zrotation Yrotation Xrotation
				JOINT LeftToeBase
				{
					OFFSET 0.000000 -0.000000 15.261641
					CHANNELS 3 Zrotation Yrotation Xrotation
					JOINT LeftToeBaseEnd
					{
						OFFSET 0.000000 -0.000000 7.539996
						CHANNELS 3 Zrotation Yrotation Xrotation
						End Site
						{
							OFFSET 0.000000 0.000000 0.000000
						}
					}
				}
				JOINT LeftLegEnd
				{
					OFFSET 0.000000 0.000000 0.000000
					CHANNELS 3 Zrotation Yrotation Xrotation
					End Site
					{
						OFFSET 0.000000 0.000000 0.000000
					}
				}
			}
			JOINT LeftUpLegEnd
			{
				OFFSET 0.000000 0.000000 0.000000
				CHANNELS 3 Zrotation Yrotation Xrotation
				End Site
				{
					OFFSET 0.000000 0.000000 0.000000
				}
			}
		}
	}
}
MOTION
Frames: 5
Frame Time: 0.016667
3.448031 85.640717 10.432676 3.659750 23.204184 -12.526639 -2.691670 0.830872 7.643372 4.302747 -0.948028 -0.650251 -6.680800 4.432187 19.841234 -0.016091 0.509655 0.681157 8.200959 1.401058 14.648856 -2.439414 0.761603 -5.804670 1.056080 3.705920 -25.237047 0.000000 0.000000 0.000000 98.608688 -1.226367 6.766721 54.423817 -40.965237 8.716469 0.978898 14.193805 40.475788 7.547137 11.939773 -11.077030 10.869354 -1.865739 39.697655 0.000028 0.000038 -26.961458 0.000033 0.000050 -18.829788 -0.000000 0.000001 -0.000046 18.409733 0.306065 -8.189722 11.896152 -0.027882 -0.098411 11.812616 0.038721 -0.076316 -0.000001 0.000007 -0.000017 18.897202 0.107729 -10.298094 12.369184 -0.017697 -0.043454 12.138474 0.002866 -0.014693 -0.000001 0.000189 -0.000004 21.008991 -0.147450 -11.377537 13.926771 0.035837 0.116710 13.750960 -0.016045 0.095423 -0.000016 -0.000080 0.000016 21.723764 -0.440090 -13.917060 13.915797 0.050978 0.482806 13.872980 -0.096673 0.316052 -0.000254 -0.000009 -0.000005 0.000000 0.000000 0.000000 0.000000 0.000000 0.000000 -94.661522 0.515422 4.470774 -51.573616 36.488991 1.849733 -1.915412 -7.200866 56.323383 -1.160976 -24.014812 -12.654845 -7.356517 1.538626 41.311230 -0.000002 0.000018 -17.883612 -0.000017 -0.000043 -12.512863 -0.001042 0.000024 0.002607 -6.037874 0.329691 -10.920444 -5.500781 -0.066345 -0.042266 -5.555685 -0.018900 -0.007815 0.000012 -0.001469 -0.000005 -8.160423 0.141907 -13.132788 -6.471129 -0.035640 0.003728 -6.398639 -0.005643 -0.014919 -0.000928 -0.000074 0.000014 -12.627889 -0.112568 -13.343712 -9.001161 0.048155 -0.033644 -9.113232 -0.007812 -0.021117 -0.001871 0.000002 0.000002 -15.207686 -0.303068 -14.161811 -10.821280 0.108127 -0.252185 -10.460832 -0.027152 -0.158821 0.000577 -0.000009 -0.000039 0.000000 0.000000 0.000000 0.000000 0.000000 0.000000 -14.585790 -3.318270 12.998292 -0.471592 -1.082574 24.884010 7.489273 -13.880865 10.727777 -0.773018 -1.072561 -28.317972 0.000000 0.000000 0.000000 0.000000 0.000000 0.000000 0.000000 0.000000 0.000000 -4.507640 0.221196 12.463795 0.078400 0.342118 15.424023 6.814713 1.325035 12.577536 -0.305721 0.354144 -27.071596 0.000000 0.000000 0.000000 0.000000 0.000000 0.000000 0.000000 0.000000 0.000000 
3.510969 85.634407 10.339401 3.675170 23.288565 -12.437411 -2.718407 0.838957 7.637123 4.252234 -0.931748 -0.586877 -6.650331 4.407852 19.810671 -0.029204 0.514089 0.667138 8.239281 1.376212 14.556046 -2.428493 0.748003 -5.828068 1.068170 3.701471 -25.198988 0.000000 0.000000 0.000000 98.626480 -1.239709 6.802218 54.304955 -41.078270 8.756427 0.959809 14.224652 40.615650 7.574559 11.797930 -10.957165 10.883037 -1.868141 39.689556 0.000028 0.000038 -27.004902 0.000033 0.000050 -18.861856 -0.000001 0.000001 -0.000046 18.511875 0.305101 -8.270133 11.969563 -0.027263 -0.102670 11.886620 0.038920 -0.079693 -0.000002 0.000007 -0.000017 18.989975 0.107107 -10.363440 12.437550 -0.017660 -0.045139 12.211801 0.002674 -0.015692 -0.000001 0.000192 -0.000004 21.094677 -0.147185 -11.423549 14.001048 0.035719 0.118007 13.824369 -0.016123 0.096609 -0.000016 -0.000077 0.000016 21.780556 -0.440145 -13.947438 13.975868 0.050613 0.482896 13.925273 -0.096634 0.315218 -0.000260 -0.000009 -0.000003 0.000000 0.000000 0.000000 0.000000 0.000000 0.000000 -94.680717 0.508689 4.531640 -51.486080 36.469410 1.929469 -1.888285 -7.260506 56.491653 -1.275950 -23.961802 -12.556343 -7.412609 1.545935 41.285278 -0.000001 0.000018 -18.028683 -0.000012 -0.000044 -12.610826 -0.001119 0.000024 0.002461 -6.350984 0.329580 -11.043978 -5.683116 -0.066028 -0.037255 -5.742687 -0.018661 -0.002396 0.000013 -0.001531 -0.000004 -8.436335 0.141946 -13.209319 -6.643476 -0.035485 0.006111 -6.574491 -0.005530 -0.013136 -0.000922 -0.000074 0.000018 -12.877813 -0.112543 -13.373673 -9.170848 0.047989 -0.036834 -9.288519 -0.008040 -0.023325 -0.001861 0.000002 0.000002 -15.419175 -0.302274 -14.133574 -10.975050 0.107716 -0.261751 -10.612617 -0.027253 -0.166185 0.000534 -0.000009 -0.000039 0.000000 0.000000 0.000000 0.000000 0.000000 0.000000 -14.626748 -3.210302 12.739764 -0.471501 -1.071608 25.067236 7.543275 -13.942201 10.815386 -0.769377 -1.075379 -28.349277 0.000000 0.000000 0.000000 0.000000 0.000000 0.000000 0.000000 0.000000 0.000000 -4.618474 0.214465 12.285784 0.077129 0.332691 15.517279 6.898907 1.379653 12.592333 -0.317884 0.357490 -27.065237 0.000000 0.000000 0.000000 0.000000 0.000000 0.000000 0.000000 0.000000 0.000000 
3.562569 85.630936 10.247427 3.684186 23.373583 -12.346090 -2.740347 0.844949 7.631406 4.192302 -0.912525 -0.527132 -6.609272 4.372907 19.777908 -0.046312 0.515780 0.654909 8.274447 1.338556 14.473827 -2.424173 0.719481 -5.844367 1.084669 3.697638 -25.160370 0.000000 0.000000 0.000000 98.641571 -1.257294 6.840192 54.194500 -41.154472 8.802862 0.940296 14.274080 40.732597 7.546983 11.628258 -10.865999 10.884305 -1.868972 39.687771 0.000028 0.000038 -27.017658 0.000033 0.000051 -18.873001 -0.000002 0.000001 -0.000046 18.551256 0.303786 -8.335388 12.017645 -0.026484 -0.105443 11.936873 0.039184 -0.081591 -0.000002 0.000008 -0.000017 19.018282 0.106374 -10.417918 12.479985 -0.017586 -0.046253 12.259381 0.002510 -0.016131 -0.000002 0.000195 -0.000004 21.111874 -0.146815 -11.465923 14.047027 0.035544 0.118383 13.870432 -0.016188 0.096992 -0.000017 -0.000076 0.000016 21.774246 -0.439399 -13.984341 14.011480 0.050117 0.480561 13.953213 -0.096560 0.311940 -0.000261 -0.000009 -0.000001 0.000000 0.000000 0.000000 0.000000 0.000000 0.000000 -94.698174 0.501176 4.601470 -51.372700 36.442097 2.046267 -1.857948 -7.330107 56.629936 -1.373117 -23.914042 -12.471029 -7.461248 1.552187 41.262455 -0.000001 0.000018 -18.157244 -0.000007 -0.000044 -12.697044 -0.001187 0.000024 0.002304 -6.612144 0.329246 -11.147593 -5.840430 -0.065650 -0.033036 -5.906004 -0.018303 0.002084 0.000013 -0.001596 -0.000004 -8.667202 0.141933 -13.270363 -6.791017 -0.035272 0.008178 -6.725829 -0.005405 -0.011703 -0.000914 -0.000074 0.000021 -13.090831 -0.112402 -13.395948 -9.318945 0.047702 -0.039482 -9.440206 -0.008306 -0.025129 -0.001849 0.000002 0.000002 -15.603596 -0.300842 -14.108604 -11.111201 0.106937 -0.269574 -10.746349 -0.027525 -0.172106 0.000492 -0.000009 -0.000039 0.000000 0.000000 0.000000 0.000000 0.000000 0.000000 -14.652512 -3.103624 12.499333 -0.471139 -1.061338 25.208683 7.587287 -13.997955 10.903857 -0.766002 -1.076093 -28.377790 0.000000 0.000000 0.000000 0.000000 0.000000 0.000000 0.000000 0.000000 0.000000 -4.713662 0.204086 12.100453 0.076124 0.324874 15.606850 6.971930 1.430178 12.607480 -0.327923 0.359863 -27.059166 0.000000 0.000000 0.000000 0.000000 0.000000 0.000000 0.000000 0.000000 0.000000 
3.602327 85.630333 10.157280 3.685272 23.456200 -12.254242 -2.757976 0.848995 7.626203 4.124388 -0.891053 -0.468865 -6.557425 4.328992 19.743225 -0.067420 0.515064 0.645122 8.302047 1.292191 14.403764 -2.426713 0.677872 -5.853319 1.104009 3.694659 -25.121977 0.000000 0.000000 0.000000 98.653206 -1.278415 6.880643 54.085190 -41.196651 8.862670 0.921164 14.335767 40.826996 7.473701 11.448462 -10.797442 10.874507 -1.868402 39.691608 0.000028 0.000037 -27.002932 0.000033 0.000051 -18.865431 -0.000002 0.000001 -0.000046 18.534622 0.302235 -8.383242 12.039790 -0.025650 -0.106659 11.962626 0.039439 -0.081920 -0.000002 0.000008 -0.000017 18.988840 0.105562 -10.458941 12.495758 -0.017510 -0.046719 12.280197 0.002348 -0.015968 -0.000002 0.000196 -0.000003 21.068756 -0.146303 -11.502794 14.063485 0.035403 0.117787 13.887402 -0.016191 0.096541 -0.000017 -0.000072 0.000016 21.712839 -0.437983 -14.025686 14.020529 0.049704 0.475899 13.955112 -0.096275 0.306493 -0.000257 -0.000009 0.000001 0.000000 0.000000 0.000000 0.000000 0.000000 0.000000 -94.714767 0.493129 4.678211 -51.229580 36.406895 2.203721 -1.826362 -7.403013 56.745113 -1.449862 -23.874207 -12.404719 -7.498991 1.557056 41.244377 -0.000001 0.000017 -18.260439 -0.000002 -0.000045 -12.765357 -0.001246 0.000024 0.002140 -6.806204 0.328719 -11.224708 -5.959767 -0.065510 -0.030882 -6.032254 -0.018111 0.004495 0.000013 -0.001659 -0.000004 -8.839509 0.141859 -13.311116 -6.900610 -0.035119 0.009398 -6.839321 -0.005365 -0.011018 -0.000899 -0.000074 0.000023 -13.255051 -0.112156 -13.408424 -9.432816 0.047451 -0.040993 -9.555331 -0.008491 -0.026087 -0.001836 0.000002 0.000002 -15.750449 -0.298892 -14.086872 -11.218385 0.106210 -0.274263 -10.850627 -0.027673 -0.175561 0.000452 -0.000009 -0.000039 0.000000 0.000000 0.000000 0.000000 0.000000 0.000000 -14.661599 -3.000811 12.275313 -0.470521 -1.051873 25.313093 7.619823 -14.043601 10.993561 -0.762281 -1.074909 -28.405832 0.000000 0.000000 0.000000 0.000000 0.000000 0.000000 0.000000 0.000000 0.000000 -4.790306 0.194614 11.910485 0.075285 0.318536 15.689419 7.033596 1.477044 12.622673 -0.335463 0.361816 -27.052246 0.000000 0.000000 0.000000 0.000000 0.000000 0.000000 0.000000 0.000000 0.000000 
3.630855 85.632088 10.069254 3.679178 23.533661 -12.162877 -2.771822 0.851419 7.620779 4.048542 -0.867440 -0.408284 -6.495880 4.278095 19.706469 -0.092415 0.512712 0.639291 8.323070 1.240126 14.347225 -2.434800 0.626324 -5.855289 1.125233 3.692192 -25.085949 0.000000 0.000000 0.000000 98.661407 -1.302418 6.924090 53.970577 -41.207088 8.943439 0.903456 14.411761 40.897041 7.367350 11.280572 -10.739098 10.855397 -1.866695 39.700085 0.000027 0.000037 -26.965055 0.000033 0.000051 -18.842171 -0.000003 0.000001 -0.000046 18.473211 0.300463 -8.413649 12.036859 -0.024851 -0.106385 11.964327 0.039606 -0.080714 -0.000002 0.000008 -0.000016 18.912170 0.104675 -10.485919 12.485481 -0.017470 -0.046498 12.274607 0.002160 -0.015183 -0.000003 0.000196 -0.000003 20.975828 -0.145626 -11.533066 14.050261 0.035372 0.116186 13.874674 -0.016072 0.095255 -0.000018 -0.000058 0.000016 21.604639 -0.436032 -14.068882 14.001548 0.049566 0.468709 13.929954 -0.095604 0.298838 -0.000252 -0.000008 0.000003 0.000000 0.000000 0.000000 0.000000 0.000000 0.000000 -94.732727 0.485743 4.758323 -51.054504 36.368317 2.401704 -1.795897 -7.481955 56.841118 -1.502139 -23.839930 -12.355511 -7.524467 1.560450 41.231819 -0.000001 0.000017 -18.333834 0.000001 -0.000045 -12.812949 -0.001300 0.000024 0.001975 -6.929688 0.327978 -11.272415 -6.035498 -0.065844 -0.031617 -6.115618 -0.018327 0.004117 0.000013 -0.001718 -0.000004 -8.948668 0.141703 -13.329323 -6.966090 -0.035131 0.009408 -6.908967 -0.005489 -0.011334 -0.000875 -0.000075 0.000025 -13.363722 -0.111782 -13.410171 -9.505182 0.047356 -0.040960 -9.626702 -0.008497 -0.025890 -0.001821 0.000002 0.000002 -15.851727 -0.296497 -14.067922 -11.289192 0.105842 -0.274920 -10.918424 -0.027447 -0.175866 0.000416 -0.000009 -0.000039 0.000000 0.000000 0.000000 0.000000 0.000000 0.000000 -14.656535 -2.903964 12.064177 -0.469733 -1.043304 25.389263 7.641751 -14.076275 11.083087 -0.757742 -1.072194 -28.433928 0.000000 0.000000 0.000000 0.000000 0.000000 0.000000 0.000000 0.000000 0.000000 -4.848344 0.190312 11.717146 0.074608 0.313648 15.764863 7.084375 1.519913 12.638024 -0.340471 0.363824 -27.044861 0.000000 0.000000 0.000000 0.000000 0.000000 0.000000 0.000000 0.000000 0.000000 
